# xmcd
#
# Track frame offsets: 
#        150
#        14475
#        26175
#        36975
#        61125
#        73200
#        83100
#        92325
#        103125
#        114150
#        128925
#        138375
#        150900
#        161400
#        171300
#        186675
#
# Disc length: 2636 seconds
#
# Revision: 4
# Processed by: cddbd v1.5.2PL0 Copyright (c) Steve Scherf et al.
# Submitted via: ExactAudioCopy v0.95a5
#
DISCID=d80a4a10
DTITLE=Various Artist - Jingle Bell Country
DYEAR=1988
DGENRE=Country
TTITLE0=Gene Autry - Rudolph, The Red Nosed Reindeer
TTITLE1=Johnny Cash - Little Drummer Boy
TTITLE2=John Schneider - The Christmas Song
TTITLE3=Grandpa Jones - The Christmas Guest
TTITLE4=Merle Haggard - If We Make It Through December
TTITLE5=Sweethearts Of The Rodeo - Jingle Bell Rock
TTITLE6=Tammy Wynette and The O'Kanes - Away In A Manger
TTITLE7=Ray Price - I Heard The Bells On Christmas Day
TTITLE8=George Jones - O Come All Ye Faithful
TTITLE9=Slim Whitman - Angels We Have Heard On High
TTITLE10=Charlie McCoy - Christmas Time's A Comin'
TTITLE11=Roy Orbison - Pretty Paper
TTITLE12=Tanya Tucker - Silver Bells
TTITLE13=Boots Randolph - Sleigh Ride
TTITLE14=Chet Atkins - Do You Hear What I Hear?
TTITLE15=Connie Smith - Go Tell It On The Mountain
EXTD=
EXTT0=
EXTT1=
EXTT2=
EXTT3=
EXTT4=
EXTT5=
EXTT6=
EXTT7=
EXTT8=
EXTT9=
EXTT10=
EXTT11=
EXTT12=
EXTT13=
EXTT14=
EXTT15=
PLAYORDER=
